<?xml version="1.0" encoding="UTF-8" standalone="no"?><!DOCTYPE svg PUBLIC "-//W3C//DTD SVG 1.1//EN" "http://www.w3.org/Graphics/SVG/1.1/DTD/svg11.dtd"><svg width="100%" height="100%" viewBox="0 0 1167 575" version="1.1" xmlns="http://www.w3.org/2000/svg" xmlns:xlink="http://www.w3.org/1999/xlink" xml:space="preserve" xmlns:serif="http://www.serif.com/" style="fill-rule:evenodd;clip-rule:evenodd;stroke-linejoin:round;stroke-miterlimit:2;"><g id="zdn-logo.png"><path d="M618.636,24.643c53.851,6.213 86.103,32.379 100.798,102.302c2.383,11.337 4.068,61.134 -0.145,79.425c-25.837,112.151 -92.949,101.265 -204.705,101.265c-16.228,0 -29.957,3.185 -30.273,-9.662c-0.559,-22.731 -0.064,-241.549 -0.017,-262.553c0.034,-15.196 6.666,-11.36 21.956,-11.368c99.554,-0.051 99.523,0.234 112.386,0.591Zm-15.739,234.138c-55.336,0.573 -58.438,1.621 -59.919,-5.601c-0.178,-0.867 -0.119,-3.577 -0.127,-154.476c-0.001,-13.086 -3.422,-25.956 9.933,-26.177c80.449,-1.332 97.666,9.34 108.689,59.448c1.487,6.76 7.777,80.569 -14.065,107.421c-16.475,20.254 -42.04,19.176 -44.511,19.385Z" style="fill:#0d4b91;"/><path d="M306.235,429.711l16.747,-0.122c1.954,-0.177 17.001,-1.54 24.372,2.757c0.519,0.303 11.4,5.744 11.935,19.788c0.836,21.915 -17.306,20.584 -18.333,28.532c-0.09,0.696 2.99,1.316 10.807,13.293c8.264,12.663 16.379,22.989 8.608,24.625c-17.762,3.738 -18.886,-38.182 -45.73,-39.044c-20.83,-0.669 -12.842,10.026 -13.454,30.818c-0.331,11.261 -6.525,8.179 -7.29,7.799c-5.637,-2.805 -5.956,-4.415 -4.526,-78.576c0.196,-10.168 3.11,-10.915 16.863,-9.869Zm33.781,13.275c14.545,13.676 4.952,24.763 -17.128,24.769c-1.304,0 -15.386,0.004 -16.301,-0.335c-4.695,-1.739 -5.106,-1.994 -5.367,-6.903c-0.081,-1.528 -0.882,-16.582 2.542,-18.961c1.985,-1.379 17.612,-1.258 19.146,-1.247c13.226,0.102 16.402,2.497 17.107,2.677Z" style="fill:#09428c;"/><path d="M770.531,35.417c0.134,-0.711 1.669,-8.892 1.669,-8.892c1.891,-3.728 48.56,-4.014 55.418,-0.101c3.275,1.869 89.92,146.393 98.57,159.55c7.232,11 9.323,20.924 13.432,21.102c3.865,0.168 3.594,-1.167 3.386,-5.112c-0.699,-13.306 -1.667,-31.706 -1.154,-166.547c0.051,-13.339 5.182,-11.365 18.564,-11.366c26.149,-0.001 35.486,-3.652 35.247,11.366c-0,66.666 -0,133.332 -0,199.999c0,67.315 1.266,70.421 -5.818,72.024c-1.429,0.323 -45.25,0.227 -46.226,0.092c-9.531,-1.324 -9.699,-7.774 -73.765,-110.306c-38.954,-62.342 -36.571,-63.562 -40.145,-68.842c-0.768,-1.134 -4.862,-1.436 -5.745,-0.471c-1.299,1.42 -0.608,1.658 0.345,15.85c0.804,11.972 0.367,11.951 0.256,149.989c-0.012,14.644 -4.713,13.878 -18.316,13.881c-19.597,0.005 -33.057,2.095 -35.576,-5.854c-0.084,-0.266 -0.159,-0.264 -0.142,-266.364Z" style="fill:#0e4c92;"/><path d="M450.173,289.584c-0.032,2.761 0.028,5.523 -0.004,8.284c-0.145,12.464 -9.154,9.768 -48.085,9.768c-177.17,0 -177.541,0.18 -179.244,-1.268c-3.722,-3.166 -2.857,-3.674 -2.918,-8.49c-0.546,-42.891 0.108,-43.621 8.261,-53.204c12.853,-15.109 98.186,-121.658 111.88,-138.038c24.8,-29.664 25.471,-30.432 23.789,-33.236c-1.611,-2.686 -2.655,-1.369 -115.934,-1.656c-13.906,-0.035 -11.201,-5.777 -11.223,-19.66c-0.012,-7.73 -1.498,-25.243 3.683,-27.346c1.864,-0.757 1.951,-0.69 178.373,-0.685c4.941,0 24.395,-2.848 24.99,7.199c2.073,34.983 -3.351,41.849 -5.583,44.676c-9.644,12.21 -113.091,139.537 -122.939,151.659c-20.083,24.719 -23.966,26.403 -18.583,30.478c0.375,0.284 0.462,0.166 26.282,0.158c122.143,-0.041 122.681,-0.122 125.053,2.142c2.475,2.362 1.289,2.891 2.203,29.221Z" style="fill:#0d4b91;"/><path d="M546.35,510.412c0.235,22.92 5.145,41.547 -23.382,50.173c-24.85,7.515 -45.657,-8.631 -48.611,-25.452c-7.108,-40.489 0.846,-107.687 -7.358,-123.835c-24.222,-47.678 -99.23,-51.725 -130.531,-20.657c-20.107,19.958 -7.517,26.717 -13.755,32.149c-2.338,2.036 -27.01,2.846 -20.026,-7.856c1.05,-1.609 2.951,-2.53 4.038,-4.114c2.482,-3.614 0.281,-28.577 40.741,-47.148c23.152,-10.627 95.449,-20.574 127.753,27.226c18.652,27.599 10.678,30.448 12.086,123.62c0.04,2.641 0.347,22.983 14.567,29.628c14.355,6.709 26.175,-1.671 27.876,-13.156c4.541,-30.655 -4.754,-49.905 14.339,-56.917c8.926,-3.279 8.082,-4.534 16.358,-9.436c6.077,-3.599 3.395,-10.385 16.662,-10.814c32.494,-1.051 33.076,1.113 35.318,5.748c5.913,12.224 9.536,7.303 23.053,7.791c14.232,0.513 13.519,16.411 4.026,16.97c-6.231,0.367 -19.523,-2.344 -23.692,5.777c-4.469,8.705 -10.138,7.387 -34.54,7.033c-10.519,-0.153 -11.898,1.98 -18.677,-6.002c-3.079,-3.626 -15.541,-7.825 -16.063,6.679c-0.151,4.196 -0.035,8.398 -0.186,12.593Z" style="fill:#ec161c;"/><path d="M916.939,506.248c-1.146,8.266 1.736,12.214 -6.515,12.105c-5.656,-0.075 -6.053,-6.924 -6.098,-7.709c-0.641,-11.076 -0.308,-65.36 -0.273,-71.043c0.077,-12.604 7.771,-11.08 39.691,-10.835c38.435,0.295 38.812,34.827 17.519,45.829c-10.78,5.57 0.089,10.503 6.198,20.02c11.702,18.228 12.073,18.201 11.907,20.06c-0.168,1.891 -6.796,7.65 -14.533,-0.316c-12.039,-12.396 -12.495,-35.132 -37.775,-34.857c-6.707,0.073 -8.552,-0.938 -9.943,5.529c-0.174,0.806 -0.177,19.52 -0.177,21.217Zm0.001,-54.19l1.015,-8.796c2.093,-4.61 37.69,-5.763 42.533,4.614c11.2,23.995 -36.86,20.82 -40.497,18.954c-3.433,-1.76 -1.96,-2.795 -3.05,-14.772Z" style="fill:#0d468e;"/><path d="M118.731,449.143c-0.984,0.959 -3.817,-0.402 -3.5,7.206c0.473,11.341 4.882,57.614 -1.408,61.156c-1.714,0.966 -8.748,1.905 -9.221,-6.913c-0.805,-15.019 -0.028,-65.349 0.06,-71.031c0.07,-4.55 -0.218,-10.52 9.933,-10.275c11.21,0.27 11.312,9.075 22.695,42.997c5.496,16.379 8.604,29.898 9.988,29.801c2.248,-0.158 20.511,-65.975 25.81,-70.644c3.41,-3.004 14.737,-3.921 15.27,4.138c0.218,3.291 0.888,74.113 -0.333,78.445c-1.595,5.662 -10.269,6.019 -10.597,-3.631c-1.812,-53.195 3.554,-53.208 1.977,-57.535c-5.05,-13.862 -10.026,20.466 -22.593,53.598c-0.51,1.345 -7.689,20.273 -16.318,7.543c-1.041,-1.536 -10.098,-23.541 -17.435,-53.657c-0.603,-2.477 -0.743,-5.088 -1.662,-7.466c-0.551,-1.426 -2.115,-2.305 -2.666,-3.731Z" style="fill:#063e89;"/><path d="M791.238,447.917c0.418,-12.083 0.212,-12.032 0.451,-13.048c1.844,-7.836 8.986,-4.886 10.244,-3.486c1.642,1.827 1.641,19.039 1.641,20.701c-0.003,57.79 0.589,62.509 -2.835,64.871c-10.872,7.502 -20.845,-15.892 -35.247,-36.317c-14.739,-20.903 -12.456,-22.256 -14.108,-23.722c-0.396,-0.352 -4.457,-3.953 -6.617,-0.279c-0.298,0.506 -0.145,0.429 0.664,12.134c3.368,48.736 -1.859,49.543 -5.852,49.568c-8.922,0.056 -6.415,-24.023 -6.415,-24.589c-0.031,-53.663 -2.292,-68.973 11.032,-63.603c6.489,2.615 38.595,54.996 40.778,59.873c2.621,5.858 7.524,4.579 7.394,-0.673c-0.511,-20.723 -1.099,-20.568 -1.13,-41.43Z" style="fill:#0e4990;"/><path d="M1071.253,485.419c-0.127,7.795 7.316,25.849 -27.471,33.481c-32.408,7.11 -61.233,-19.213 -52.571,-58.154c10.905,-49.028 79.353,-33.994 76.73,-8.816c-0.541,5.195 -7.718,5.563 -9.935,2.805c-1.36,-1.691 -2.07,-3.83 -3.361,-5.574c-16.39,-22.153 -61.581,-5.598 -51.107,35.9c9.342,37.013 60.479,23.417 55.215,4.744c-1.989,-7.055 -4.631,-4.162 -19.005,-5.956c-5.692,-0.71 -12.36,-10.934 4.001,-11.064c5.283,-0.042 24.079,-1.051 26.195,3.574c0.305,0.666 0.097,0.669 1.309,9.059Z" style="fill:#083f8a;"/><path d="M211.818,481.757c13.197,-35.396 13.285,-35.28 14.422,-38.355c6.119,-16.557 15.166,-20.259 22.377,-4.122c1.619,3.622 28.535,70.267 28.789,71.038c0.237,0.719 2.789,8.475 -4.49,8.329c-8.771,-0.175 -13.887,-22.466 -16.718,-24.84c-1.805,-1.514 -4.19,-3.514 -29.39,-1.813c-13.124,0.886 -9.956,25.293 -20.597,26.385c-11.383,1.168 -0.876,-19.99 5.608,-36.621Zm33.941,-17.904c2.245,10.242 8.363,15.451 -2.138,16.125c-11.687,0.75 -18.657,0.291 -16.318,-7.009c0.637,-1.989 7.719,-24.097 8.495,-24.683c4.309,-3.255 4.727,-0.591 6.653,4.357c0.339,0.871 0.245,0.83 3.308,11.21Z" style="fill:#0c448d;"/><path d="M877.081,507.706c18.962,1.154 8.785,9.637 7.905,10.173c-0.649,0.395 -54.808,2.905 -59.458,-1.728c-3.213,-3.201 -2.126,-3.937 -2.395,-55.734c-0.11,-21.099 -2.145,-29.603 7.904,-31.172c5.706,-0.891 49.945,-0.415 49.986,-0.405c7.112,1.817 9.806,11.251 -3.915,11.45c-20.4,0.296 -39.363,-1.845 -41.441,3.576c-1.42,3.707 -2.12,20.313 3.268,22.022c7.048,2.235 45.282,-3.817 44.657,6.932c-0.657,11.297 -43.21,1.128 -47.737,8.667c-0.935,1.557 -3.438,23.597 3.329,25.696c2.248,0.698 19.605,0.522 37.897,0.522Z" style="fill:#08408a;"/><path d="M706.248,507.706c0.931,0.051 10.027,0.546 11.166,3.347c0.31,0.764 2.902,7.139 -7.009,7.555c-4.29,0.18 -46.697,1.961 -53.664,-0.992c-6.972,-2.955 -2.432,-5.872 -4.074,-57.194c-0.9,-28.14 0.559,-29.975 7.515,-31.168c3.304,-0.567 3.813,-0.654 41.9,-0.51c1.049,0.004 11.137,0.042 12.937,2.136c1.317,1.532 2.098,7.976 -4.494,9.222c-7.255,1.372 -42.329,-2.878 -45.432,3.873c-1.222,2.659 -2.142,20.05 3.001,21.812c7.15,2.449 45.352,-3.778 44.737,7.034c-0.647,11.365 -43.219,0.997 -47.569,8.779c-0.952,1.703 -3.127,23.387 3.097,25.483c2.462,0.829 19.129,0.623 37.89,0.622Z" style="fill:#08408a;"/><path d="M56.222,428.376c2.86,0.196 27.417,1.877 30.152,19.36c0.529,3.383 -4.116,14.988 -13.354,0.111c-11.818,-19.032 -51.491,-1.784 -33.117,12.151c9.757,7.4 55.416,6.887 49.385,37.851c-5.506,28.27 -56.865,30.792 -67.496,0.465c-4.367,-12.458 5.692,-12.173 9.141,-8.433c2.812,3.049 4.045,19.89 29.632,18.02c19.617,-1.434 24.012,-21.197 4.129,-26.969c-11.361,-3.298 -44.83,-6.216 -40.655,-32.789c3,-19.092 29.163,-19.697 32.183,-19.767Z" style="fill:#073e89;"/><path d="M1125.254,506.248c-1.139,8.252 1.748,12.195 -6.497,12.097c-14.291,-0.171 3.77,-23.518 -13.573,-48.879c-23.324,-34.107 -24.048,-34.487 -22.765,-37.774c0.596,-1.527 5.095,-11.03 18.608,8.59c11.889,17.262 16.596,33.189 23.625,21.64c17.343,-28.498 24.353,-36.531 30.748,-32.896c3.965,2.253 0.535,7.377 -22.629,40.804c-9.061,13.075 -7.506,13.957 -7.516,36.418Z" style="fill:#0d448d;"/><path d="M402.082,428.925c7.336,-0.053 39.331,-2.742 36.128,6.314c-3.657,10.34 -28.021,-1.346 -28.692,12.581c-0.698,14.48 1.749,64.008 -1.771,68.21c-3.6,4.298 -9.834,2.097 -10.171,-5.584c-0.826,-18.782 2.248,-64.17 -2.322,-68.262c-3.897,-3.489 -24.774,0.68 -25.771,-6.883c-0.837,-6.35 6.882,-6.521 7.689,-6.539c1.992,-0.044 1.845,0.012 24.91,0.164Z" style="fill:#063e89;"/><path d="M306.235,429.711c0.869,-0.269 2.317,-2.838 8.349,-2.587c5.429,0.226 7.882,2.313 8.398,2.465c-5.582,0.041 -11.165,0.082 -16.747,0.122Z" style="fill:#7d7ba2;"/></g></svg>